<svg class="icon" width="16px" height="16.00px" viewBox="0 0 1024 1024" version="1.1"
  xmlns="http://www.w3.org/2000/svg">
  <path
    d="M403.418267 674.370835c-1.605645 0-3.21129 0-5.218345-0.401411-14.852215-2.809878-25.690318-15.253626-25.690318-29.303019v-65.831438c-2.007056-112.79655 32.112897-213.952176 91.120345-270.952568 43.352411-39.338299 93.930223-57.000392 150.529204-73.859663l9.232458-2.408467-28.098785-97.944336v-0.401411c-2.809878-14.852215 2.007056-28.901607 13.24657-37.732654l0.802823-0.401411 0.802822-0.401411c7.225402-4.415523 15.253626-6.823991 22.880439-6.823991 6.422579 0 12.042336 1.605645 17.260682 4.415524l257.304587 113.197961c10.838103 5.619757 18.063505 13.647981 20.471972 23.683262 2.809878 11.640925 1.605645 21.676205-3.21129 29.303018l-158.557429 236.832615c-7.225402 11.640925-18.464916 18.464916-30.908663 18.464915-1.605645 0-3.21129 0-5.218346-0.401411-14.852215-0.401411-26.49314-10.03528-31.711485-26.091728l-23.683262-81.486476-17.260682 1.605644c-28.098785 2.007056-66.634261 13.24657-81.887887 17.662094-58.606037 18.866327-108.381027 86.704822-132.867111 181.839278l-10.838103 43.352411c-2.809878 13.647981-14.852215 24.084673-28.500196 24.084673z m34.922776-185.050568c38.936887-67.838495 83.493532-111.592317 129.655821-126.444532 16.859271-5.218346 58.606037-17.260682 88.310466-19.267738l30.507253-5.218346c2.007056-0.401411 3.612701-0.401411 5.619756-0.401411 16.45786 0 30.507252 10.436691 34.922776 25.690317l14.049392 48.972168 111.190906-164.578596L670.356723 168.592709l19.267738 67.437083c3.21129 8.831047 2.809878 18.866327-1.605645 27.295963-4.415523 8.831047-12.443748 15.253626-21.676205 18.063504l-27.295963 8.429636c-48.972168 14.049392-87.507644 29.303018-117.613485 57.401803-41.345355 38.134065-67.838495 83.092121-83.894943 141.698157l0.802823 0.401412z" />
  <path
    d="M225.994512 936.492356c-72.655429 0-131.261466-59.007448-131.261466-131.261466V254.494708c0-72.655429 59.007448-131.261466 131.261466-131.261466h234.424147c18.063505 0 32.514308 14.450804 32.514308 32.514308s-14.450804 32.514308-32.514308 32.514308H225.994512c-36.52842 0-66.23285 29.70443-66.23285 66.23285v550.334771c0 36.52842 29.70443 66.23285 66.23285 66.232849h572.412387c36.52842 0 66.23285-29.70443 66.23285-66.232849v-319.523325c0-18.063505 14.450804-32.514308 32.514308-32.514308s32.514308 14.450804 32.514308 32.514308v319.523325c0 72.655429-59.007448 131.261466-131.261466 131.261466H225.994512z" />
</svg>