<svg class="icon" width="16px" height="16.00px" viewBox="0 0 1024 1024" version="1.1"
  xmlns="http://www.w3.org/2000/svg">
  <path
    d="M906.787926 145.71227l-43.352411 12.042336C769.103881 184.649157 702.46962 235.628381 684.807526 294.635829c-4.415523 15.253626-14.450804 54.190514-16.056448 82.289298l-1.204234 17.260682 82.289299 21.676206c16.45786 4.816935 26.091729 16.45786 26.894551 31.310074 0.401411 1.605645 0.401411 3.21129 0.401411 5.218346 0.401411 12.443748-6.021168 24.084673-17.662093 31.310075L525.848687 647.476284c-7.626813 5.218346-17.662093 6.823991-28.901607 4.014112-10.03528-2.408467-18.464916-9.232458-24.486084-20.070561L353.643277 377.326539c-3.21129-5.218346-4.816935-10.838103-4.816934-17.260682 0-7.626813 2.007056-15.655037 6.021168-22.88044l0.401411-0.802822 0.401411-0.802822c8.831047-11.239514 22.479028-16.45786 37.732654-14.049393h0.401411l98.345747 25.690318 2.408467-9.232458c15.655037-57.000392 31.711486-107.979616 70.246962-152.134849 55.796158-60.211682 156.148961-96.740102 268.544101-97.141513l65.831438-1.605645c14.049392-0.401411 26.49314 10.03528 30.105841 24.887495 0.401411 1.605645 0.401411 3.21129 0.802823 5.218346 0 12.845159-10.03528 25.288906-23.281851 28.500196z m-161.768718 9.633869c-58.204626 17.260682-102.359859 44.958056-139.691101 86.30341-27.697374 30.908663-42.148177 69.845551-54.993336 118.817719l-8.028225 27.295962c-2.408467 9.232458-8.831047 17.260682-17.662093 22.077617-8.429635 4.415523-18.464916 5.218346-27.295962 2.408467L429.509996 394.587221l83.894943 180.233634 161.768718-114.803607-48.972167-12.845159c-15.655037-4.014112-26.091729-17.662093-26.49314-34.119953 0-1.605645 0-3.612701 0.401411-5.619757l4.415523-30.507252c1.204234-29.70443 12.443748-71.852607 17.260682-88.711877 13.647981-46.162289 56.19757-91.923167 123.634653-132.4657l-0.401411-0.401411z" />
  <path
    d="M225.994512 936.893767c-72.655429 0-131.261466-59.007448-131.261466-131.261466V255.29753c0-72.655429 59.007448-131.261466 131.261466-131.261466H397.397099c18.063505 0 32.514308 14.450804 32.514308 32.514308s-14.450804 32.514308-32.514308 32.514309H225.994512c-36.52842 0-66.23285 29.70443-66.23285 66.232849v550.334771c0 36.52842 29.70443 66.23285 66.23285 66.23285h572.412387c36.52842 0 66.23285-29.70443 66.23285-66.23285V402.615445c0-18.063505 14.450804-32.514308 32.514308-32.514308s32.514308 14.450804 32.514308 32.514308v403.016856c0 72.655429-59.007448 131.261466-131.261466 131.261466H225.994512z" />
</svg>