<svg class="icon" width="16px" height="16.00px" viewBox="0 0 1024 1024" version="1.1"
  xmlns="http://www.w3.org/2000/svg">
  <path
    d="M521.1008 504.7296c-14.7456 0-27.008-11.9808-27.3664-26.7264V84.4288c0-14.784 12.5696-26.8032 28.0192-26.8032 15.5136 0 28.1344 12.032 28.1344 26.8032v393.4848c-0.128 7.2192-3.1232 14.0544-8.3968 19.136-5.1456 4.9536-11.904 7.68-19.0464 7.68h-1.344z" />
  <path
    d="M509.7088 965.7856c-56.6144 0-111.9616-10.7008-164.4928-31.808-52.544-21.1072-99.9168-51.6864-140.8-90.8672-39.6032-38.0032-70.8736-82.752-92.9664-132.992-24.6912-56.3968-36.3392-118.72-33.6512-180.2368 2.688-61.5168 19.712-122.5856 49.2288-176.6272 31.8976-57.92 77.5552-108.4032 132.0192-145.9584a28.7104 28.7104 0 0 1 16.3712-5.1072c9.1264 0 17.5104 4.16 23.0272 11.4176 4.1728 5.632 5.9008 12.9024 4.6848 19.8656a26.048 26.048 0 0 1-11.2 17.152c-47.5264 32.8448-87.296 76.864-115.1104 127.3856-28.4672 51.6864-43.456 110.208-43.328 169.216 0 97.5104 39.3728 189.184 110.8608 258.0864 71.6032 68.864 165.7344 106.7904 265.0624 106.7904H513.536c99.328 0 193.472-37.9008 265.1008-106.7264 70.3872-66.9056 110.7712-161.0112 110.7584-258.1632 0.1664-58.9952-14.7712-117.5168-43.2128-169.2032-27.8656-50.5088-67.6992-94.4896-115.2-127.2064-5.8752-3.9168-9.92-10.0608-11.2-16.9088-1.2544-6.7584 0.2688-13.8624 4.1856-19.52l0.4992-0.6016 0.0896-0.1152c5.504-7.2576 13.8752-11.4048 22.9888-11.4048 5.8496 0 11.5072 1.7664 16.3456 5.0944 54.4512 37.5424 100.0832 88 131.968 145.92 29.5552 54.0032 46.6048 115.0848 49.3056 176.6016 2.7008 61.5168-8.9472 123.8528-33.664 180.2624-22.08 50.2656-53.3632 95.04-92.9664 133.0432-40.0384 38.6048-86.4512 68.8-137.9712 89.7536-53.6576 21.7984-110.2336 32.8576-168.1408 32.8576h-2.7136z" />
</svg>