<svg class="icon" width="16px" height="16.00px" viewBox="0 0 1024 1024" version="1.1"
  xmlns="http://www.w3.org/2000/svg">
  <path
    d="M538.9184 933.312c-29.9008 0-74.2272-3.584-115.6096-20.6848-50.5984-20.9024-83.4816-56.3328-97.728-105.2928-17.2416-59.2512-35.1488-68.3648-38.5664-69.5936-0.832-0.3072-1.6896-0.448-2.5472-0.448-1.344 0-2.6496 0.3584-3.7888 1.0368-0.8064 0.7424-1.216 1.024-2.0096 1.4208-0.1536 0.0768-0.3712 0.1792-0.7552 0.3968-4.2624 2.3808-26.56 14.0288-55.744 14.0288-14.144 0-27.776-2.752-40.5248-8.2048-41.0496-17.472-70.2848-60.672-86.8992-128.384-11.584-47.2064-15.1424-94.9888-10.5728-142.0544 3.6992-38.0416 12.6976-75.7632 26.7392-112.1152 24.6912-63.9104 56.9984-102.8096 60.608-107.0336 46.9376-58.3936 102.592-102.0928 165.3632-129.8176 53.9648-23.8336 113.1392-35.9168 175.8592-35.9168 130.3424 0 229.888 51.136 257.2928 66.8032 12.8128 7.6672 17.1776 24.3712 9.8048 37.2608-4.8896 8.5376-14.0288 13.8496-23.872 13.8496-4.5696 0-9.1136-1.1648-13.1328-3.3536-50.88-29.1072-137.9328-60.1728-229.888-60.1728-1.728 0-3.4688 0.0128-5.2096 0.0384-117.8752 1.088-216.6784 50.24-293.6832 146.112-0.1664 0.2176-0.384 0.4736-0.6016 0.7168-2.944 3.5968-29.4144 36.6336-50.2912 90.368-19.456 50.0864-37.8752 129.3056-15.0656 222.2336 12.0832 49.28 31.1168 80.7168 55.0656 90.9184 5.9904 2.56 12.5184 3.8528 19.3792 3.8528 13.5808 0 24.6144-5.0688 27.1744-6.3488 6.016-4.0448 18.368-10.6496 34.7776-10.6496 6.2592 0 12.5696 0.9856 18.7264 2.944 32.6528 10.304 57.2544 45.2224 75.1744 106.7392 22.6432 77.8368 120.7552 86.2336 161.8944 86.2336 13.8752 0 22.6304-0.9088 22.7072-0.9088 0.5248-0.0512 1.0624-0.0896 1.5872-0.128l0.2816-0.0128c9.8048-0.448 239.1296-14.7328 316.6208-364.7232 0.0128-0.0896 0.0384-0.1792 0.0512-0.2944 2.0352-11.2128 11.5584-69.632-1.1776-118.6048-2.5856-9.4848 0.1536-19.7248 7.1552-26.688 5.184-5.1456 12.0576-7.9744 19.3664-7.9744a27.52768 27.52768 0 0 1 26.6752 20.8768c16.6656 64.1152 3.3024 136 1.728 143.9872-19.5328 88.256-49.92 164.3264-90.3168 226.176-32.768 50.176-72.2432 91.2768-117.3376 122.1632-77.5552 53.12-146.5856 59.328-159.6288 60.032-3.5072 0.3072-14.0672 1.216-29.0816 1.216z" />
  <path
    d="M206.976 481.1776c0 12.0576 9.7664 21.824 21.824 21.824 12.0448 0 21.824-9.7664 21.824-21.824 0-12.0576-9.7664-21.824-21.824-21.824-12.0448 0-21.824 9.7664-21.824 21.824z m0 0M255.04 366.8096c0 17.8944 14.5152 32.4096 32.4096 32.4096s32.4096-14.5152 32.4096-32.4096-14.5152-32.4096-32.4096-32.4096c-17.9072 0-32.4096 14.5024-32.4096 32.4096z m0 0M376.6784 272.3328c0 22.976 18.624 41.6 41.6 41.6s41.6-18.624 41.6-41.6c0-22.9632-18.624-41.6-41.6-41.6s-41.6 18.624-41.6 41.6z m0 0M548.3264 274.3168c0 20.2624 10.8032 39.0016 28.3648 49.1264a56.77312 56.77312 0 0 0 56.7296 0 56.7424 56.7424 0 0 0 28.3648-49.1264c0-20.2752-10.816-38.9888-28.3648-49.1264a56.7104 56.7104 0 0 0-56.7296 0 56.6848 56.6848 0 0 0-28.3648 49.1264z m0 0M485.888 659.5328c-10.112 0-19.1488-6.0288-23.0144-15.3728-3.8656-9.344-1.7536-20.0064 5.4016-27.1488L889.2416 195.968c4.7104-4.6848 10.9568-7.2704 17.5872-7.2704 6.656 0 12.9152 2.5856 17.6128 7.296 9.7024 9.7024 9.7152 25.4976 0.0256 35.2L503.4368 652.2368c-4.6848 4.6976-10.9184 7.296-17.5488 7.296z" />
</svg>